<svg width="288" height="41" viewBox="0 0 288 41" fill="none" xmlns="http://www.w3.org/2000/svg">
<path d="M209.304 12.1196V23.9843C209.304 27.7001 210.052 29.9166 213.895 29.9166C217.702 29.9166 218.42 27.7001 218.42 23.9843V12.1196H222.573V23.9536C222.573 30.8868 220.042 33.226 213.891 33.226C207.74 33.226 205.148 30.8829 205.148 23.9536V12.1196H209.304ZM225.828 17.5534V32.854H229.824V25.0465C229.824 22.6728 230.2 20.4257 232.884 20.4257C233.916 20.4257 234.541 20.7708 234.913 21.3C235.35 21.925 235.442 22.8607 235.442 24.0802V32.854H239.438V25.0465C239.438 22.6728 239.752 20.4257 242.436 20.4257C243.529 20.4257 244.154 20.7669 244.53 21.3613C244.937 21.9864 244.998 22.8914 244.998 24.0763V32.8502H248.994V23.3247C248.994 21.2003 248.618 19.8274 247.87 18.8611C246.996 17.7682 245.592 17.2045 243.748 17.2045C241.405 17.2045 239.844 17.9868 238.629 19.5782C238.003 18.4239 236.845 17.2045 234.196 17.2045C232.29 17.2045 230.729 17.8909 229.824 19.2983V17.5496H225.828V17.5534ZM257.933 27.8573L254.777 17.5534H250.374L255.747 32.854H259.961L265.238 17.5534H261.054L257.933 27.8573ZM265.709 25.1999C265.709 29.6673 268.363 33.226 273.548 33.226C277.888 33.226 280.105 30.5417 280.826 28.4172L277.079 27.9187C276.642 29.1688 275.488 30.1659 273.49 30.1659C271.304 30.1659 269.774 28.6665 269.682 26.4193H281.079C281.328 20.8283 278.456 17.2083 273.459 17.2083C268.739 17.2083 265.709 20.5177 265.709 25.1999ZM269.674 23.6392C269.797 21.0469 271.672 20.1112 273.36 20.1112C275.108 20.1112 276.983 21.1121 277.075 23.6392H269.674ZM287.694 12.1196H283.698V32.854H287.694V12.1196ZM186.196 20.6481L191.339 8.53418H195.147V16.311L186.196 20.6481ZM185.234 24.1032V32.7926C190.71 32.7926 195.147 28.3559 195.147 22.8799V20.1994L185.234 24.1032ZM180.759 20.6481L175.505 8.53418H171.697V16.311L180.759 20.6481ZM187.565 8.53418H179.447L183.462 19.8543L187.565 8.53418ZM181.614 24.1032L171.701 20.1994V22.8799C171.701 28.3559 176.138 32.7926 181.614 32.7926V24.1032Z" fill="black"/>
<path d="M14.8255 25.7636C14.7335 25.5911 9.06957 14.5547 8.37932 13.4657C7.5817 12.2117 6.60768 11.3374 4.744 11.3374C3.01454 11.3374 0.966797 12.1043 0.966797 16.2612V30.2119H5.14665V18.5735C5.14665 17.7376 5.09296 16.4989 5.08529 16.2535C5.07762 16.0464 5.08529 15.8547 5.18883 15.7933C5.31154 15.7243 5.43041 15.8355 5.51094 15.9928C5.59147 16.1461 10.845 26.5344 11.9609 28.2907C12.7586 29.5447 13.7326 30.419 15.5963 30.419C17.3257 30.419 19.3735 29.652 19.3735 25.4952V11.5406H15.1936V23.179C15.1936 24.015 15.2435 25.2536 15.255 25.499C15.2626 25.7061 15.255 25.8978 15.1514 25.9592C15.0287 26.0321 14.9099 25.9209 14.8255 25.7636ZM72.9292 18.006C72.9292 16.219 72.3272 15.5211 70.801 15.5211H63.9751V26.2353H70.801C72.3233 26.2353 72.9292 25.5412 72.9292 23.7542V18.006ZM71.2841 30.2081H59.7339V11.5521H71.0847C75.3604 11.5521 77.2586 13.2011 77.2586 18.0903V23.6737C77.2586 27.9533 75.8206 30.2081 71.2841 30.2081ZM97.4638 11.5483V15.4751H103.45V30.2119H107.691V15.4751H113.677V11.5483H97.4638ZM38.3669 11.5483V15.4751H44.3529V30.2119H48.5941V15.4751H54.5801V11.5483H38.3669ZM127.612 26.22V22.4121H119.621C118.969 22.4121 118.259 22.692 118.259 24.2911C118.259 25.894 118.98 26.22 119.621 26.22H127.612ZM131.808 17.9408V30.2081H119.18C115.786 30.2081 114.099 28.678 114.099 24.8701V23.9882C114.099 20.2876 115.729 18.6464 119.003 18.6464H127.616C127.616 18.493 127.612 17.9983 127.612 17.9868C127.612 16.1998 127.018 15.5019 125.496 15.5019H115.104V11.5445H125.776C130.255 11.5483 131.808 13.2394 131.808 17.9408ZM92.4173 26.22V22.4121H84.4257C83.7777 22.4121 83.0644 22.692 83.0644 24.2911C83.0644 25.894 83.7853 26.22 84.4257 26.22H92.4173ZM96.6125 17.9408V30.2081H83.9847C80.591 30.2081 78.8999 28.678 78.8999 24.8701V23.9882C78.8999 20.2876 80.5296 18.6464 83.8045 18.6464H92.4135V17.9868C92.4135 16.1998 91.8191 15.5019 90.2967 15.5019H79.9046V11.5445H90.5766C95.0594 11.5483 96.6125 13.2394 96.6125 17.9408ZM37.017 11.5483V15.4751H31.031V30.2119H26.7898V15.4751H20.8038V11.5483H37.017Z" fill="black"/>
<path d="M152.07 40.8801C151.541 40.8801 151.111 40.4506 151.111 39.9214V1.83881C151.111 1.30962 151.541 0.880127 152.07 0.880127C152.599 0.880127 153.029 1.30962 153.029 1.83881V39.9214C153.029 40.4506 152.599 40.8801 152.07 40.8801Z" fill="black"/>
</svg>
