<svg width="748" height="105" viewBox="0 0 748 105" fill="none" xmlns="http://www.w3.org/2000/svg">
<path d="M543.291 29.3319V60.2719C543.291 69.9619 545.241 75.7419 555.261 75.7419C565.191 75.7419 567.061 69.9619 567.061 60.2719V29.3319H577.891V60.1919C577.891 78.2719 571.291 84.3719 555.251 84.3719C539.211 84.3719 532.451 78.2619 532.451 60.1919V29.3319H543.291ZM586.381 43.5019V83.4019H596.801V63.0419C596.801 56.8519 597.781 50.9919 604.781 50.9919C607.471 50.9919 609.101 51.8919 610.071 53.2719C611.211 54.9019 611.451 57.3419 611.451 60.5219V83.4019H621.871V63.0419C621.871 56.8519 622.691 50.9919 629.691 50.9919C632.541 50.9919 634.171 51.8819 635.151 53.4319C636.211 55.0619 636.371 57.4219 636.371 60.5119V83.3919H646.791V58.5519C646.791 53.0119 645.811 49.4319 643.861 46.9119C641.581 44.0619 637.921 42.5919 633.111 42.5919C627.001 42.5919 622.931 44.6319 619.761 48.7819C618.131 45.7719 615.111 42.5919 608.201 42.5919C603.231 42.5919 599.161 44.3819 596.801 48.0519V43.4919H586.381V43.5019ZM670.101 70.3719L661.871 43.5019H650.391L664.401 83.4019H675.391L689.151 43.5019H678.241L670.101 70.3719ZM690.381 63.4419C690.381 75.0919 697.301 84.3719 710.821 84.3719C722.141 84.3719 727.921 77.3719 729.801 71.8319L720.031 70.5319C718.891 73.7919 715.881 76.3919 710.671 76.3919C704.971 76.3919 700.981 72.4819 700.741 66.6219H730.461C731.111 52.0419 723.621 42.6019 710.591 42.6019C698.281 42.6019 690.381 51.2319 690.381 63.4419ZM700.721 59.3719C701.041 52.6119 705.931 50.1719 710.331 50.1719C714.891 50.1719 719.781 52.7819 720.021 59.3719H700.721ZM747.711 29.3319H737.291V83.4019H747.711V29.3319ZM483.031 51.5719L496.441 19.9819H506.371V40.2619L483.031 51.5719ZM480.521 60.5819V83.2419C494.801 83.2419 506.371 71.6719 506.371 57.3919V50.4019L480.521 60.5819ZM468.851 51.5719L455.151 19.9819H445.221V40.2619L468.851 51.5719ZM486.601 19.9819H465.431L475.901 49.5019L486.601 19.9819ZM471.081 60.5819L445.231 50.4019V57.3919C445.231 71.6719 456.801 83.2419 471.081 83.2419V60.5819Z" fill="#FFFFFF"/>
<path d="M36.14 64.912C35.9 64.462 21.13 35.682 19.33 32.842C17.25 29.572 14.71 27.292 9.85 27.292C5.34 27.292 0 29.292 0 40.132V76.512H10.9V46.162C10.9 43.982 10.76 40.752 10.74 40.112C10.72 39.572 10.74 39.072 11.01 38.912C11.33 38.732 11.64 39.022 11.85 39.432C12.06 39.832 25.76 66.922 28.67 71.502C30.75 74.772 33.29 77.052 38.15 77.052C42.66 77.052 48 75.052 48 64.212V27.822H37.1V58.172C37.1 60.352 37.23 63.582 37.26 64.222C37.28 64.762 37.26 65.262 36.99 65.422C36.67 65.612 36.36 65.322 36.14 64.912ZM187.66 44.682C187.66 40.022 186.09 38.202 182.11 38.202H164.31V66.142H182.11C186.08 66.142 187.66 64.332 187.66 59.672V44.682ZM183.37 76.502H153.25V27.852H182.85C194 27.852 198.95 32.152 198.95 44.902V59.462C198.95 70.622 195.2 76.502 183.37 76.502ZM251.64 27.842V38.082H267.25V76.512H278.31V38.082H293.92V27.842H251.64ZM97.53 27.842V38.082H113.14V76.512H124.2V38.082H139.81V27.842H97.53ZM330.26 66.102V56.172H309.42C307.72 56.172 305.87 56.902 305.87 61.072C305.87 65.252 307.75 66.102 309.42 66.102H330.26V66.102ZM341.2 44.512V76.502H308.27C299.42 76.502 295.02 72.512 295.02 62.582V60.282C295.02 50.632 299.27 46.352 307.81 46.352H330.27C330.27 45.952 330.26 44.662 330.26 44.632C330.26 39.972 328.71 38.152 324.74 38.152H297.64V27.832H325.47C337.15 27.842 341.2 32.252 341.2 44.512ZM238.48 66.102V56.172H217.64C215.95 56.172 214.09 56.902 214.09 61.072C214.09 65.252 215.97 66.102 217.64 66.102H238.48V66.102ZM249.42 44.512V76.502H216.49C207.64 76.502 203.23 72.512 203.23 62.582V60.282C203.23 50.632 207.48 46.352 216.02 46.352H238.47V44.632C238.47 39.972 236.92 38.152 232.95 38.152H205.85V27.832H233.68C245.37 27.842 249.42 32.252 249.42 44.512ZM94.01 27.842V38.082H78.4V76.512H67.34V38.082H51.73V27.842H94.01Z" fill="#FFFFFF"/>
<path d="M394.039 104.332C392.659 104.332 391.539 103.212 391.539 101.832V2.52197C391.539 1.14197 392.659 0.0219727 394.039 0.0219727C395.419 0.0219727 396.539 1.14197 396.539 2.52197V101.832C396.539 103.212 395.419 104.332 394.039 104.332Z" fill="#FFFFFF"/>
</svg>
