<svg width="224" height="47" viewBox="0 0 224 47" fill="none" xmlns="http://www.w3.org/2000/svg">
<path d="M213.014 22.7781L218.928 8.84717H223.307V17.7905L213.014 22.7781ZM211.907 26.7515V36.7444C218.204 36.7444 223.307 31.6421 223.307 25.3447V22.2622L211.907 26.7515ZM206.761 22.7781L200.719 8.84717H196.34V17.7905L206.761 22.7781ZM214.588 8.84717H205.252L209.87 21.8653L214.588 8.84717ZM207.744 26.7515L196.344 22.2622V25.3447C196.344 31.6421 201.447 36.7444 207.744 36.7444V26.7515Z" fill="#FFFFFF"/>
<path d="M15.9375 28.661C15.8317 28.4625 9.31819 15.7707 8.5244 14.5183C7.60713 13.0763 6.48701 12.0708 4.34378 12.0708C2.3549 12.0708 0 12.9528 0 17.7332V33.7765H4.80683V20.3923C4.80683 19.431 4.74509 18.0066 4.73627 17.7243C4.72745 17.4862 4.73627 17.2657 4.85534 17.1951C4.99645 17.1158 5.13316 17.2436 5.22577 17.4245C5.31838 17.6008 11.36 29.5474 12.6433 31.5671C13.5605 33.0092 14.6807 34.0146 16.8239 34.0146C18.8128 34.0146 21.1677 33.1326 21.1677 28.3523V12.3045H16.3608V25.6887C16.3608 26.65 16.4182 28.0744 16.4314 28.3567C16.4402 28.5948 16.4314 28.8153 16.3123 28.8859C16.1712 28.9697 16.0345 28.8418 15.9375 28.661ZM82.7568 19.7397C82.7568 17.6846 82.0644 16.882 80.3093 16.882H72.4596V29.2034H80.3093C82.06 29.2034 82.7568 28.4052 82.7568 26.3502V19.7397ZM80.8649 33.7721H67.5822V12.3178H80.6356C85.5527 12.3178 87.7356 14.214 87.7356 19.8367V26.2575C87.7356 31.179 86.0819 33.7721 80.8649 33.7721ZM110.972 12.3133V16.8291H117.855V33.7765H122.733V16.8291H129.617V12.3133H110.972ZM43.0101 12.3133V16.8291H49.894V33.7765H54.7714V16.8291H61.6553V12.3133H43.0101ZM145.642 29.1857V24.8067H136.452C135.702 24.8067 134.887 25.1286 134.887 26.9676C134.887 28.8109 135.716 29.1857 136.452 29.1857H145.642ZM150.467 19.6647V33.7721H135.945C132.042 33.7721 130.102 32.0125 130.102 27.6335V26.6192C130.102 22.3636 131.976 20.4761 135.742 20.4761H145.647C145.647 20.2997 145.642 19.7309 145.642 19.7176C145.642 17.6626 144.959 16.86 143.208 16.86H131.257V12.3089H143.53C148.681 12.3134 150.467 14.2581 150.467 19.6647ZM105.168 29.1857V24.8067H95.9778C95.2325 24.8067 94.4122 25.1286 94.4122 26.9676C94.4122 28.8109 95.2413 29.1857 95.9778 29.1857H105.168ZM109.993 19.6647V33.7721H95.4706C91.5678 33.7721 89.6231 32.0125 89.6231 27.6335V26.6192C89.6231 22.3636 91.4973 20.4761 95.2634 20.4761H105.164V19.7176C105.164 17.6626 104.48 16.86 102.729 16.86H90.7785V12.3089H103.051C108.207 12.3134 109.993 14.2581 109.993 19.6647ZM41.4578 12.3133V16.8291H34.5739V33.7765H29.6965V16.8291H22.8126V12.3133H41.4578Z" fill="#FFFFFF"/>
<path d="M173.768 46.0449C173.16 46.0449 172.666 45.551 172.666 44.9424V1.1474C172.666 0.538834 173.16 0.0449219 173.768 0.0449219C174.377 0.0449219 174.871 0.538834 174.871 1.1474V44.9424C174.871 45.551 174.377 46.0449 173.768 46.0449Z" fill="#FFFFFF"/>
</svg>
