<svg width="306" height="316" viewBox="0 0 306 316" fill="none" xmlns="http://www.w3.org/2000/svg">
<g clip-path="url(#clip0_1246_13238)">
<path d="M188.717 157.077L255.627 0.723389H305.175V101.092L188.717 157.077Z" fill="black"/>
<path d="M176.193 201.661L305.255 151.257V185.88C305.255 219.831 291.658 252.391 267.454 276.398C243.25 300.404 210.423 313.891 176.193 313.891V201.661Z" fill="black"/>
<path d="M117.975 157.077L49.6327 0.723389H0.0849609V101.092L117.975 157.077Z" fill="black"/>
<path d="M206.524 0.723389H100.854L153.104 146.837L206.524 0.723389Z" fill="black"/>
<path d="M129.087 201.661L0.145508 151.257V185.88C0.145508 219.831 13.7431 252.391 37.9469 276.398C62.1507 300.404 94.9782 313.891 129.208 313.891L129.087 201.661Z" fill="black"/>
</g>
<defs>
<clipPath id="clip0_1246_13238">
<rect width="305.2" height="314.553" fill="white" transform="translate(0.0849609 0.723389)"/>
</clipPath>
</defs>
</svg>
