<svg width="33" height="32" viewBox="0 0 33 32" fill="none" xmlns="http://www.w3.org/2000/svg">
<path d="M28.4109 4.55063C27.701 3.84073 26.5543 3.84073 25.8444 4.55063L16.9434 13.4334L8.04234 4.53242C7.33244 3.82253 6.18568 3.82253 5.47578 4.53242C4.76588 5.24232 4.76588 6.38908 5.47578 7.09898L14.3768 16L5.47578 24.901C4.76588 25.6109 4.76588 26.7577 5.47578 27.4676C6.18568 28.1775 7.33244 28.1775 8.04234 27.4676L16.9434 18.5666L25.8444 27.4676C26.5543 28.1775 27.701 28.1775 28.4109 27.4676C29.1208 26.7577 29.1208 25.6109 28.4109 24.901L19.5099 16L28.4109 7.09898C29.1026 6.40728 29.1026 5.24232 28.4109 4.55063Z" fill="black"/>
</svg>
