<svg width="32" height="32" viewBox="0 0 32 32" fill="none" xmlns="http://www.w3.org/2000/svg">
<g clip-path="url(#clip0_2343_15570)">
<path d="M20.6675 18.6668H19.6142L19.2408 18.3068C20.8408 16.4401 21.6675 13.8934 21.2142 11.1868C20.5875 7.4801 17.4942 4.5201 13.7608 4.06677C8.12083 3.37344 3.37417 8.1201 4.0675 13.7601C4.52083 17.4934 7.48083 20.5868 11.1875 21.2134C13.8942 21.6668 16.4408 20.8401 18.3075 19.2401L18.6675 19.6134V20.6668L24.3342 26.3334C24.8808 26.8801 25.7742 26.8801 26.3208 26.3334C26.8675 25.7868 26.8675 24.8934 26.3208 24.3468L20.6675 18.6668ZM12.6675 18.6668C9.3475 18.6668 6.6675 15.9868 6.6675 12.6668C6.6675 9.34677 9.3475 6.66677 12.6675 6.66677C15.9875 6.66677 18.6675 9.34677 18.6675 12.6668C18.6675 15.9868 15.9875 18.6668 12.6675 18.6668Z" fill="black"/>
</g>
<defs>
<clipPath id="clip0_2343_15570">
<rect width="32" height="32" fill="white"/>
</clipPath>
</defs>
</svg>
