<svg width="64" height="64" viewBox="0 0 64 64" fill="none" xmlns="http://www.w3.org/2000/svg">
<g clip-path="url(#clip0_5441_47266)">
<path d="M50.6669 31.9999H55.2003C56.4269 31.9999 57.0136 30.4799 56.0803 29.6799L33.7869 9.59992C32.7736 8.69326 31.2269 8.69326 30.2136 9.59992L7.92026 29.6799C7.01359 30.4799 7.57359 31.9999 8.80026 31.9999H13.3336V50.6666C13.3336 52.1333 14.5336 53.3333 16.0003 53.3333C17.4669 53.3333 18.6669 52.1333 18.6669 50.6666V47.9999H45.3336V50.6666C45.3336 52.1333 46.5336 53.3333 48.0003 53.3333C49.4669 53.3333 50.6669 52.1333 50.6669 50.6666V31.9999ZM19.2269 26.6666H44.7736L45.3336 27.1733V31.9999H18.6669V27.1733L19.2269 26.6666ZM38.8536 21.3333H25.1469L32.0003 15.1733L38.8536 21.3333ZM18.6669 42.6666V37.3333H45.3336V42.6666H18.6669Z" fill="#F1193D"/>
</g>
<defs>
<clipPath id="clip0_5441_47266">
<rect width="64" height="64" fill="white"/>
</clipPath>
</defs>
</svg>
