<svg width="64" height="64" viewBox="0 0 64 64" fill="none" xmlns="http://www.w3.org/2000/svg">
<path fill-rule="evenodd" clip-rule="evenodd" d="M53.334 8H10.6673C7.73398 8 5.33398 10.4 5.33398 13.3333V50.6667C5.33398 53.6 7.73398 56 10.6673 56H53.334C56.2673 56 58.6673 53.6 58.6673 50.6667V13.3333C58.6673 10.4 56.2673 8 53.334 8ZM24.0007 45.3333H16.0007C14.534 45.3333 13.334 44.1333 13.334 42.6667C13.334 41.2 14.534 40 16.0007 40H24.0007C25.4673 40 26.6673 41.2 26.6673 42.6667C26.6673 44.1333 25.4673 45.3333 24.0007 45.3333ZM24.0007 34.6667H16.0007C14.534 34.6667 13.334 33.4667 13.334 32C13.334 30.5333 14.534 29.3333 16.0007 29.3333H24.0007C25.4673 29.3333 26.6673 30.5333 26.6673 32C26.6673 33.4667 25.4673 34.6667 24.0007 34.6667ZM24.0007 24H16.0007C14.534 24 13.334 22.8 13.334 21.3333C13.334 19.8667 14.534 18.6667 16.0007 18.6667H24.0007C25.4673 18.6667 26.6673 19.8667 26.6673 21.3333C26.6673 22.8 25.4673 24 24.0007 24ZM49.8673 29.6533L41.414 38.1067C40.374 39.1467 38.6673 39.1467 37.6273 38.1067L33.8673 34.32C32.8273 33.28 32.8273 31.6 33.8673 30.56C34.9073 29.52 36.5873 29.52 37.6273 30.56L39.5207 32.4533L46.1073 25.8667C47.1473 24.8267 48.8273 24.8267 49.8673 25.8667L49.894 25.8933C50.9073 26.9333 50.9073 28.64 49.8673 29.6533Z" fill="#F1193D"/>
</svg>
