<svg width="202" height="48" viewBox="0 0 202 48" fill="none" xmlns="http://www.w3.org/2000/svg">
<g clip-path="url(#clip0_5670_54337)">
<path d="M78.2158 30.1473C78.2158 35.2841 74.444 38.8146 65.963 38.8146C58.0786 38.8146 53.8701 34.913 53.5664 28.9546H59.5916C59.8526 32.2042 62.2552 33.8051 65.9843 33.8051C70.3207 33.8051 72.1426 32.448 72.1426 30.2693C72.1426 28.3397 70.8428 27.3112 67.982 26.7387L63.5604 25.8322C58.313 24.772 54.5839 22.6516 54.5839 17.4512C54.5839 12.606 59.0056 9.31934 66.0322 9.31934C72.8352 9.31934 77.6883 13.0566 77.7523 18.4372H71.6685C71.498 16.2214 69.8093 14.3713 65.9044 14.3713C62.2659 14.3713 60.6623 15.6859 60.6623 17.4512C60.6623 18.9302 61.6159 20.001 64.5619 20.6319L68.6799 21.4535C74.3162 22.5456 78.2158 24.9151 78.2158 30.1473ZM90.3513 38.8146C84.4593 38.8146 81.0765 34.1338 81.0765 27.8042C81.0765 21.2309 84.5872 16.7144 90.3513 16.7144C93.5477 16.7144 95.4229 17.9866 96.5523 19.3649H96.7227L97.33 17.0642H102.535V47.8106H96.7227V36.1482H96.5523C95.4229 37.5424 93.5583 38.8146 90.3513 38.8146ZM96.9571 27.8042C96.9571 24.4381 95.6147 21.5596 91.9708 21.5596C88.3269 21.5596 86.9845 24.4381 86.9845 27.8042C86.9845 31.1704 88.247 33.9694 91.9708 33.9694C95.6946 33.9694 96.9571 31.1333 96.9571 27.8042ZM115.507 38.8146C118.586 38.8146 120.669 37.6272 121.926 36.0209H122.097L122.533 38.4435H127.733V17.0854H121.926V28.9175C121.926 31.955 120.062 33.8051 117.286 33.8051C114.383 33.8051 113.125 32.2148 113.125 29.5324V17.0854H107.297V31.0909C107.297 35.8195 110.51 38.8146 115.491 38.8146H115.507ZM145.419 25.5619V24.3532C145.419 22.6304 144.29 21.2309 141.515 21.2309C139.091 21.2309 137.743 22.466 137.743 23.9875H132.266C132.266 19.9586 135.463 16.7144 141.632 16.7144C147.7 16.7144 151.221 19.9586 151.221 24.3161V38.4435H146.064L145.627 36.2277H145.435C144.178 37.7862 142.053 38.8146 139.149 38.8146C134.12 38.8146 131.26 35.9414 131.26 32.1617C131.26 28.2972 134.078 25.546 140.364 25.546L145.419 25.5619ZM145.419 29.384H140.822C138.265 29.384 137.05 30.4124 137.05 31.9285C137.05 33.4446 138.222 34.4783 140.561 34.4783C143.598 34.4783 145.419 32.6706 145.419 30.5343V29.384ZM167.048 21.867H169.083V16.7568H167.437C166.218 16.726 165.016 17.047 163.976 17.681C162.936 18.315 162.103 19.2349 161.577 20.3297H161.417L160.986 17.0854H156.09V38.4435H161.593V27.9686C161.566 24.1094 163.548 21.8511 167.032 21.8511L167.048 21.867ZM192.39 31.8066C191.783 35.6711 188.096 38.8305 182.268 38.8305C175.29 38.8305 171.385 33.9853 171.385 27.8201C171.385 21.7398 174.943 16.7303 182.178 16.7303C188.901 16.7303 192.672 21.3316 192.672 27.1628V29.2833H177.346C177.388 32.2042 178.944 34.2557 182.29 34.2557C184.889 34.2557 186.274 33.1053 186.711 31.7907L192.39 31.8066ZM177.399 25.6308H186.764C186.679 23.2029 185.246 21.3157 182.21 21.3157C178.949 21.3157 177.522 23.2029 177.399 25.6308ZM198.266 24.3002C197.769 24.3129 197.274 24.224 196.813 24.039C196.352 23.854 195.933 23.5768 195.584 23.2245C195.234 22.8723 194.961 22.4525 194.781 21.9911C194.601 21.5296 194.518 21.0364 194.537 20.5417C194.537 19.5534 194.932 18.6055 195.634 17.9066C196.336 17.2077 197.289 16.8151 198.282 16.8151C199.275 16.8151 200.228 17.2077 200.93 17.9066C201.633 18.6055 202.027 19.5534 202.027 20.5417C202.045 21.0396 201.96 21.5359 201.777 21.9995C201.593 22.4632 201.316 22.8844 200.962 23.237C200.609 23.5895 200.186 23.8658 199.72 24.0487C199.254 24.2317 198.756 24.3173 198.255 24.3002H198.266ZM198.266 23.3089C199.891 23.3089 200.956 22.2911 200.956 20.5417C200.956 18.7924 199.891 17.7746 198.266 17.7746C196.641 17.7746 195.555 18.7871 195.555 20.5417C195.555 22.2964 196.615 23.3248 198.255 23.3248L198.266 23.3089ZM198.335 21.2256H197.765V22.3812H196.87V18.8083H198.527C198.691 18.7937 198.857 18.8129 199.013 18.8645C199.17 18.9162 199.314 18.9993 199.437 19.1086C199.559 19.2179 199.658 19.3512 199.727 19.5001C199.796 19.6491 199.834 19.8106 199.838 19.9745C199.852 20.2026 199.799 20.4298 199.685 20.6284C199.572 20.8271 199.403 20.9885 199.198 21.0931L199.982 22.2646V22.3706H199.049L198.335 21.2256ZM197.765 20.4357H198.437C198.714 20.4357 198.905 20.3191 198.905 20.0063C198.909 19.9457 198.899 19.885 198.877 19.8286C198.854 19.7722 198.819 19.7216 198.774 19.6805C198.729 19.6394 198.675 19.6087 198.617 19.5908C198.559 19.5729 198.497 19.5682 198.437 19.5769H197.765V20.4357Z" fill="#F1193D"/>
<path d="M30.7704 0.293945L5.42952 7.55319C1.45144 8.69277 -0.845064 12.8256 0.300143 16.7841L7.59526 42.0004C8.74046 45.959 12.8937 48.2442 16.8718 47.1046L42.2127 39.8453C46.1908 38.7058 48.4873 34.5729 47.3421 30.6144L40.047 5.3981C38.9018 1.43958 34.7485 -0.845632 30.7704 0.293945Z" fill="#F1193D"/>
<path d="M24.683 21.7345V28.2866H31.0758C30.3939 29.6013 28.0978 31.1227 24.683 31.1227C20.1708 31.1227 17.326 27.7777 17.326 23.3354C17.326 19.0627 20.1708 15.8026 24.683 15.8026C27.2561 15.8026 29.2059 16.9105 30.2447 18.3789L37.9799 14.7901C35.4868 10.7506 30.8307 7.95166 24.683 7.95166C15.2377 7.95166 8.81836 14.6204 8.81836 23.3248C8.81836 32.0292 15.2111 38.698 24.683 38.698C34.6717 38.698 40.6649 32.0133 40.1321 21.7345H24.683Z" fill="#FCFCFC"/>
</g>
<defs>
<clipPath id="clip0_5670_54337">
<rect width="202" height="48" fill="white"/>
</clipPath>
</defs>
</svg>
